<?xml version="1.0" standalone="no"?>
<!DOCTYPE svg PUBLIC "-//W3C//DTD SVG 20010904//EN"
 "http://www.w3.org/TR/2001/REC-SVG-20010904/DTD/svg10.dtd">
<svg version="1.0" xmlns="http://www.w3.org/2000/svg"
 width="457.000000pt" height="546.000000pt" viewBox="0 0 457.000000 546.000000"
 preserveAspectRatio="xMidYMid meet">

<g transform="translate(0.000000,546.000000) scale(0.100000,-0.100000)"
fill="#000000" stroke="none">
<path d="M3676 5193 c-4 -4 -118 -8 -254 -10 -136 -1 -255 -2 -264 -2 -10 0
-28 0 -40 0 -13 0 -41 0 -63 -1 -22 0 -80 2 -129 4 -49 3 -96 1 -106 -4 -9 -5
-63 -11 -121 -14 -57 -3 -121 -10 -143 -15 -21 -5 -45 -7 -52 -4 -8 3 -20 1
-27 -5 -6 -5 -70 -13 -142 -17 -71 -3 -161 -13 -200 -21 -62 -12 -229 -17
-540 -15 -38 1 -121 11 -183 23 l-113 23 -25 -30 -25 -30 5 -280 c2 -154 0
-343 -5 -420 -17 -261 -21 -639 -9 -920 6 -154 15 -394 20 -533 5 -139 12
-256 15 -261 3 -5 10 -78 15 -163 6 -84 13 -173 15 -198 3 -25 8 -110 10 -190
3 -80 7 -201 10 -270 8 -197 15 -1261 8 -1303 -6 -41 -20 -51 -134 -98 -50
-21 -73 -23 -288 -25 -129 -2 -246 -8 -260 -13 -37 -15 -187 -39 -246 -40
-102 -2 -260 -24 -268 -38 -4 -7 -16 -13 -26 -13 -40 0 -35 -98 8 -131 24 -19
34 -20 181 -14 85 3 193 10 240 16 48 6 241 9 442 8 316 -2 361 -5 393 -20 59
-29 87 -31 125 -10 32 17 66 19 333 23 164 3 300 8 304 11 3 4 11 3 17 -2 17
-13 64 -22 70 -13 3 5 20 8 38 6 18 -2 53 -4 78 -5 25 -1 50 -5 55 -9 6 -5 42
-11 80 -14 39 -4 97 -9 131 -12 48 -4 63 -2 73 10 8 9 24 16 37 16 25 0 40 15
24 25 -16 10 -12 22 9 28 12 3 19 13 19 23 -1 11 2 33 6 51 4 19 3 34 -3 38
-6 3 -11 14 -11 23 -1 34 -29 57 -73 59 -23 1 -69 7 -102 13 -33 5 -80 8 -105
5 -25 -3 -111 -7 -192 -10 -81 -2 -167 -9 -190 -16 -53 -14 -269 -4 -343 16
-27 7 -71 16 -98 20 -28 4 -58 16 -75 30 l-27 23 -1 329 c-3 669 -5 793 -15
845 -15 83 -18 117 -10 122 4 3 4 40 0 83 -4 43 -10 139 -13 213 -12 281 -17
356 -26 405 -5 28 -14 106 -20 175 -6 69 -15 175 -20 235 -12 136 -18 253 -25
465 -4 91 -9 179 -12 195 -9 47 -9 676 0 682 4 2 7 46 7 96 -1 234 4 294 28
326 12 17 22 40 22 51 0 49 42 120 94 157 67 49 78 54 118 43 70 -20 336 -19
468 1 69 11 161 24 205 29 44 6 92 13 106 15 143 25 691 43 884 30 50 -3 95
-6 100 -6 6 -1 33 2 60 5 28 3 64 3 82 0 31 -6 32 -6 38 -82 7 -70 15 -124 46
-307 5 -33 23 -87 40 -121 17 -37 29 -77 29 -101 l0 -41 113 45 c61 25 119 49
128 54 15 7 13 20 -17 119 -19 61 -34 133 -34 159 0 55 -22 115 -46 129 -13 7
-17 33 -21 133 -3 68 -10 135 -17 149 -19 42 -144 88 -170 63z"/>
</g>
</svg>
