<?xml version="1.0" standalone="no"?>
<!DOCTYPE svg PUBLIC "-//W3C//DTD SVG 20010904//EN"
 "http://www.w3.org/TR/2001/REC-SVG-20010904/DTD/svg10.dtd">
<svg version="1.0" xmlns="http://www.w3.org/2000/svg"
 width="457.000000pt" height="546.000000pt" viewBox="0 0 457.000000 546.000000"
 preserveAspectRatio="xMidYMid meet">

<g transform="translate(0.000000,546.000000) scale(0.100000,-0.100000)"
fill="#000000" stroke="none">
<path d="M3676 5192 c-4 -3 -118 -8 -254 -9 -136 -1 -255 -2 -264 -2 -10 0
-28 0 -40 0 -13 0 -41 0 -63 -1 -22 0 -80 2 -129 4 -49 3 -96 1 -106 -4 -9 -5
-65 -11 -126 -14 -60 -3 -124 -10 -142 -15 -18 -6 -40 -7 -48 -4 -8 3 -20 1
-27 -5 -6 -5 -70 -13 -142 -17 -71 -3 -161 -13 -200 -21 -62 -12 -229 -17
-540 -15 -38 1 -121 11 -183 23 l-113 23 -25 -30 -25 -30 3 -305 c2 -168 -3
-445 -11 -617 -12 -261 -13 -367 -2 -660 7 -191 16 -452 21 -578 5 -127 13
-257 18 -290 6 -33 14 -114 17 -180 4 -66 9 -136 11 -155 21 -204 46 -1637 30
-1715 -3 -11 -5 -32 -5 -47 -1 -30 -23 -44 -132 -89 -50 -21 -73 -23 -288 -25
-129 -2 -246 -8 -260 -13 -37 -15 -187 -39 -246 -40 -102 -2 -260 -24 -268
-38 -4 -7 -16 -13 -26 -13 -40 0 -35 -98 8 -131 24 -19 34 -20 181 -14 85 3
193 10 240 16 47 6 244 9 441 8 318 -2 361 -4 393 -20 60 -29 88 -31 127 -10
33 18 61 20 325 22 159 1 296 6 305 10 9 5 20 4 25 0 14 -13 62 -22 68 -13 3
5 20 8 38 6 18 -2 53 -4 78 -5 25 -1 50 -5 56 -10 6 -5 42 -11 80 -14 38 -3
96 -8 130 -11 48 -4 63 -2 73 10 8 9 24 16 37 16 25 0 40 15 24 25 -16 10 -12
22 9 28 12 3 19 13 19 23 -1 11 2 33 6 51 4 19 3 34 -3 38 -6 3 -11 14 -11 23
-1 34 -29 56 -73 59 -23 1 -69 6 -102 12 -33 6 -80 9 -105 6 -25 -3 -111 -7
-192 -10 -81 -2 -166 -9 -190 -15 -52 -14 -270 -5 -343 15 -27 7 -71 16 -97
20 -29 4 -60 16 -77 31 l-29 24 0 273 c0 591 -3 835 -13 892 -13 81 -16 126
-9 130 3 2 3 39 -1 82 -4 43 -10 137 -13 208 -15 320 -17 363 -26 410 -9 47
-21 175 -36 365 -3 47 -7 97 -9 112 -5 37 -14 223 -21 408 -3 85 -8 171 -11
190 -8 56 -9 671 0 677 4 2 7 46 7 96 -2 229 4 294 28 326 12 17 22 40 22 53
0 45 46 119 96 157 63 47 75 52 116 41 70 -20 336 -19 468 1 286 43 644 77
820 76 25 0 101 1 170 2 69 1 163 0 210 -4 47 -3 94 -5 105 -5 54 5 154 4 158
0 3 -3 10 -54 16 -115 10 -99 28 -206 50 -307 11 -50 -2 -68 -49 -68 -21 0
-42 -5 -45 -10 -4 -6 -33 -24 -66 -40 -55 -28 -81 -46 -115 -78 -17 -16 -81
-219 -105 -336 -16 -76 -18 -100 -8 -146 15 -73 58 -154 111 -212 48 -53 180
-129 265 -154 29 -8 53 -21 54 -27 5 -50 -6 -392 -16 -532 -6 -80 0 -168 33
-429 l17 -138 45 -24 c25 -13 57 -24 71 -24 34 0 63 41 56 79 -38 211 -49 289
-58 420 -15 211 -15 468 0 572 l13 86 71 18 c94 23 151 54 220 120 66 63 91
109 107 194 22 121 14 243 -23 348 -36 103 -86 163 -194 229 l-66 40 -29 90
c-16 49 -32 116 -34 149 -6 78 -23 133 -46 149 -15 11 -19 32 -24 122 -8 175
-13 188 -82 216 -33 14 -97 20 -106 10z m14 -898 c24 -10 53 -14 71 -10 35 7
72 -10 140 -63 121 -95 176 -257 134 -397 -27 -91 -99 -136 -206 -129 -125 9
-187 36 -277 119 -103 95 -111 249 -19 384 43 64 87 112 103 112 7 0 32 -7 54
-16z"/>
</g>
</svg>
