<?xml version="1.0" standalone="no"?>
<!DOCTYPE svg PUBLIC "-//W3C//DTD SVG 20010904//EN"
 "http://www.w3.org/TR/2001/REC-SVG-20010904/DTD/svg10.dtd">
<svg version="1.0" xmlns="http://www.w3.org/2000/svg"
 width="457.000000pt" height="546.000000pt" viewBox="0 0 457.000000 546.000000"
 preserveAspectRatio="xMidYMid meet">
<metadata>
Created by potrace 1.16, written by Peter Selinger 2001-2019
</metadata>
<g transform="translate(0.000000,546.000000) scale(0.100000,-0.100000)"
fill="#000000" stroke="none">
<path d="M3110 5191 c0 -9 -39 -11 -142 -10 -79 1 -163 -1 -188 -5 -25 -5 -54
-8 -65 -8 -41 1 -240 -22 -250 -28 -5 -4 -32 -8 -60 -9 -124 -4 -214 -11 -260
-21 -29 -6 -183 -11 -360 -12 -268 -1 -319 1 -375 17 -85 23 -119 21 -139 -7
-25 -35 -28 -48 -26 -143 6 -316 4 -621 -5 -690 -10 -79 -14 -750 -5 -895 5
-84 13 -246 20 -455 8 -209 25 -438 39 -530 6 -34 16 -238 21 -395 1 -58 6
-231 11 -385 4 -154 8 -463 8 -687 1 -350 -1 -409 -14 -421 -28 -27 -107 -61
-192 -84 -13 -4 -122 -7 -243 -8 -182 -2 -235 -6 -310 -23 -87 -20 -291 -42
-387 -42 -35 0 -48 -4 -48 -14 0 -8 -14 -19 -31 -25 -21 -7 -29 -15 -26 -26 4
-8 2 -17 -2 -20 -15 -9 10 -69 37 -90 24 -18 40 -20 132 -17 58 1 166 8 240
14 74 6 295 12 491 11 343 0 358 0 397 -21 22 -11 43 -18 46 -15 3 3 12 1 19
-5 10 -9 23 -7 53 9 36 20 58 22 259 25 121 1 262 4 313 6 52 2 96 0 98 -3 2
-3 49 -5 106 -4 57 1 111 -2 121 -7 10 -5 74 -15 143 -23 121 -13 127 -13 147
6 11 10 31 19 44 19 25 0 29 10 11 28 -12 12 -10 13 15 16 6 1 12 10 13 21 0
11 4 36 8 55 8 38 -2 71 -32 108 -15 20 -31 25 -93 30 -146 11 -512 2 -564
-15 -68 -22 -440 24 -498 61 -26 17 -27 22 -27 95 0 323 -11 1082 -16 1106 -4
17 -8 77 -9 135 -1 58 -4 110 -5 115 -2 6 -4 55 -5 110 -2 55 -6 141 -9 190
-3 50 -8 132 -11 183 -2 51 -7 97 -11 103 -6 10 -19 136 -29 289 -4 52 -10
124 -15 159 -5 36 -7 68 -4 72 2 5 0 57 -5 116 -6 59 -13 180 -16 268 -3 88
-9 189 -13 225 -9 79 -7 406 3 585 4 72 9 193 10 271 1 124 4 145 22 170 11
16 24 45 28 64 9 42 46 120 57 120 4 0 24 14 44 32 27 24 45 32 73 31 20 0
106 -4 191 -7 156 -7 204 -3 500 39 174 25 400 45 525 45 44 0 103 1 130 3 44
1 185 0 530 -6 l90 -2 12 -110 c6 -60 21 -161 32 -224 12 -63 21 -120 21 -128
0 -8 -13 -13 -36 -13 -20 0 -48 -8 -62 -19 -15 -10 -50 -30 -79 -45 -91 -45
-113 -76 -158 -216 -21 -69 -39 -129 -40 -135 0 -5 -7 -37 -14 -69 -20 -88
-11 -154 33 -239 20 -39 54 -91 75 -114 42 -46 199 -135 275 -154 l47 -12 -7
-261 c-3 -143 -8 -263 -11 -266 -2 -2 -10 0 -17 5 -7 6 -46 35 -87 66 -41 30
-81 58 -89 62 -23 10 -92 62 -225 168 -66 53 -130 101 -141 107 -44 24 -159
-43 -140 -81 25 -49 52 -79 118 -127 85 -62 205 -158 258 -207 19 -18 41 -31
48 -28 7 3 10 0 7 -5 -3 -5 7 -15 22 -22 15 -6 35 -17 43 -24 8 -7 58 -35 110
-62 l95 -50 7 -54 c4 -29 14 -111 23 -183 l16 -130 -36 -30 c-19 -17 -41 -42
-49 -56 -21 -40 -130 -223 -136 -229 -3 -3 -16 -25 -29 -50 -13 -25 -31 -54
-42 -65 -10 -11 -31 -52 -47 -90 -17 -39 -52 -117 -80 -175 -27 -58 -53 -116
-57 -130 -4 -14 -14 -32 -21 -41 -8 -9 -20 -39 -28 -67 -12 -46 -11 -53 7 -81
10 -17 25 -31 33 -31 8 0 14 -4 14 -9 0 -15 72 -7 81 9 29 57 82 178 108 245
38 102 117 275 130 288 6 6 11 15 11 19 0 5 12 27 26 49 14 23 37 62 51 87 28
52 81 119 156 200 26 28 45 57 42 62 -4 6 5 22 19 36 32 32 35 55 18 129 -18
80 -42 238 -37 246 2 3 36 28 76 55 39 27 81 56 93 64 11 8 25 20 29 27 4 7
19 13 33 13 49 0 199 97 199 129 0 8 6 16 13 19 6 2 12 -3 12 -12 0 -14 4 -14
35 1 19 9 35 22 35 28 0 7 9 20 20 30 24 21 26 40 5 31 -21 -8 -19 -1 9 29 26
28 38 70 29 106 -9 38 -23 49 -61 49 -36 0 -102 -36 -102 -55 0 -6 -19 -23
-42 -38 -73 -46 -149 -100 -211 -151 -59 -49 -163 -116 -179 -116 -4 0 -8 18
-8 40 0 22 -5 40 -11 40 -6 0 -8 8 -4 19 3 11 8 96 11 188 2 92 8 193 12 223
l7 55 60 13 c90 19 158 57 233 131 71 70 87 102 112 231 25 132 -15 323 -89
424 -37 49 -112 109 -174 137 -20 9 -31 27 -47 78 -11 36 -25 80 -30 96 -5 17
-12 53 -15 80 -12 98 -16 115 -39 142 -21 25 -25 42 -31 158 -7 142 -14 158
-79 190 -32 16 -126 20 -126 6 0 -6 -28 -8 -62 -6 -127 7 -278 11 -282 7 -10
-9 -182 -9 -193 0 -9 7 -13 7 -13 -1z m583 -901 c33 -15 52 -18 69 -11 32 12
92 -19 158 -82 66 -63 94 -108 114 -190 31 -122 1 -235 -75 -283 -41 -26 -47
-26 -141 -21 -119 6 -179 32 -257 109 -62 62 -83 106 -89 181 -5 64 13 125 56
192 28 43 102 125 113 125 3 0 27 -9 52 -20z"/>
</g>
</svg>
