<?xml version="1.0" standalone="no"?>
<!DOCTYPE svg PUBLIC "-//W3C//DTD SVG 20010904//EN"
 "http://www.w3.org/TR/2001/REC-SVG-20010904/DTD/svg10.dtd">
<svg version="1.0" xmlns="http://www.w3.org/2000/svg"
 width="457.000000pt" height="546.000000pt" viewBox="0 0 457.000000 546.000000"
 preserveAspectRatio="xMidYMid meet">

<g transform="translate(0.000000,546.000000) scale(0.100000,-0.100000)"
fill="#000000" stroke="none">
<path d="M3676 5193 c-4 -4 -118 -9 -254 -10 -136 -1 -255 -2 -264 -2 -10 0
-26 0 -35 0 -10 1 -29 0 -43 -1 -14 -2 -73 0 -133 4 -63 4 -115 3 -125 -3 -10
-5 -67 -12 -128 -15 -60 -3 -124 -10 -142 -15 -18 -6 -40 -7 -48 -4 -8 3 -20
1 -27 -5 -6 -5 -70 -13 -142 -17 -71 -3 -161 -13 -200 -21 -45 -8 -142 -14
-270 -14 -324 -1 -356 0 -443 20 -111 26 -124 26 -150 -10 -22 -29 -22 -33
-20 -372 1 -189 -4 -431 -10 -538 -14 -234 -15 -524 -2 -790 6 -107 14 -318
20 -468 5 -150 12 -277 15 -282 3 -5 10 -74 15 -152 6 -79 13 -170 16 -203 8
-83 11 -178 19 -565 4 -184 9 -338 11 -341 5 -8 4 -754 0 -789 -2 -14 -4 -42
-5 -62 -1 -33 -6 -40 -40 -57 -122 -63 -129 -64 -379 -67 -164 -2 -249 -7
-285 -17 -72 -20 -163 -35 -222 -36 -103 -2 -260 -24 -268 -38 -4 -7 -17 -13
-27 -13 -13 0 -20 -7 -20 -18 0 -10 -5 -23 -11 -29 -8 -8 -8 -13 0 -17 6 -4
11 -16 11 -26 0 -10 12 -28 27 -40 27 -21 34 -21 193 -15 91 3 179 9 195 13
17 3 211 7 431 8 367 1 404 0 438 -17 60 -29 87 -31 130 -10 34 18 62 20 245
23 113 1 241 1 284 0 43 -1 87 2 96 8 12 6 22 5 29 -2 6 -6 29 -10 51 -9 67 3
74 3 126 1 28 -1 55 -7 62 -12 6 -5 69 -14 139 -18 108 -8 131 -7 144 5 9 8
26 15 38 15 24 0 38 15 22 25 -16 10 -12 22 9 28 12 3 19 13 19 23 -1 11 2 33
6 51 4 19 3 34 -3 38 -6 3 -11 14 -11 23 -1 34 -29 57 -73 59 -23 2 -69 7
-102 13 -33 5 -82 8 -110 5 -27 -3 -114 -7 -193 -10 -79 -2 -162 -10 -184 -16
-51 -13 -271 -3 -343 16 -27 7 -71 16 -98 20 -28 4 -58 16 -75 30 l-27 23 -2
324 c-1 177 -2 430 -3 560 0 130 -5 261 -11 290 -13 76 -16 119 -7 125 5 2 6
8 4 12 -3 4 -8 65 -11 137 -4 71 -8 158 -10 194 -3 36 -7 123 -11 195 -3 71
-7 132 -9 136 -10 14 -38 320 -51 534 -2 33 -5 94 -8 135 -3 41 -7 152 -11
245 -3 94 -10 204 -15 246 -11 76 -6 601 5 619 3 5 6 49 6 97 -1 248 3 290 27
322 12 16 22 40 22 53 0 45 46 119 96 157 63 48 75 52 117 40 70 -19 334 -18
467 2 282 43 646 77 820 76 25 0 101 1 170 2 69 1 163 0 210 -4 47 -3 94 -5
105 -5 54 5 154 4 158 0 3 -3 10 -54 16 -115 10 -99 28 -206 50 -307 11 -50
-2 -68 -49 -68 -21 0 -42 -5 -45 -10 -4 -6 -33 -24 -66 -40 -55 -28 -81 -46
-115 -78 -17 -16 -81 -219 -105 -336 -16 -75 -18 -100 -8 -144 28 -135 103
-234 230 -302 119 -64 141 -71 259 -77 173 -9 284 28 393 132 66 63 91 109
107 194 22 121 14 243 -23 348 -36 103 -86 163 -194 229 l-66 40 -29 90 c-16
49 -33 125 -37 169 -8 83 -20 118 -47 133 -12 6 -16 35 -21 133 -3 68 -10 135
-17 149 -19 43 -144 88 -170 63z m14 -899 c25 -10 53 -14 73 -10 28 5 43 0 93
-33 78 -53 84 -58 122 -111 112 -158 88 -379 -46 -433 -43 -17 -124 -16 -206
4 -94 22 -198 107 -237 193 -23 51 -25 159 -4 200 8 15 15 33 15 38 0 12 53
90 92 134 34 39 42 40 98 18z"/>
</g>
</svg>
