<?xml version="1.0" standalone="no"?>
<!DOCTYPE svg PUBLIC "-//W3C//DTD SVG 20010904//EN"
 "http://www.w3.org/TR/2001/REC-SVG-20010904/DTD/svg10.dtd">
<svg version="1.0" xmlns="http://www.w3.org/2000/svg"
 width="457.000000pt" height="546.000000pt" viewBox="0 0 457.000000 546.000000"
 preserveAspectRatio="xMidYMid meet">
<metadata>
Created by potrace 1.16, written by Peter Selinger 2001-2019
</metadata>
<g transform="translate(0.000000,546.000000) scale(0.100000,-0.100000)"
fill="#000000" stroke="none">
<path d="M3110 5191 c0 -9 -39 -11 -142 -10 -79 1 -163 -1 -188 -5 -25 -4 -54
-7 -65 -7 -35 2 -240 -22 -250 -29 -5 -4 -32 -8 -60 -9 -124 -4 -214 -11 -260
-21 -29 -6 -182 -11 -360 -12 -268 -1 -319 1 -375 17 -85 23 -119 21 -139 -7
-25 -35 -28 -48 -26 -143 6 -316 4 -621 -5 -690 -10 -79 -14 -750 -5 -895 6
-88 13 -261 20 -451 8 -210 25 -443 39 -534 6 -34 17 -250 21 -395 1 -52 6
-223 11 -380 4 -157 8 -468 8 -692 1 -452 6 -418 -69 -455 -105 -53 -137 -58
-375 -59 -189 -1 -238 -4 -305 -21 -75 -19 -306 -44 -402 -43 -30 0 -43 -4
-43 -14 0 -8 -14 -19 -31 -25 -21 -7 -29 -15 -26 -26 4 -8 2 -17 -2 -20 -15
-9 10 -69 37 -90 24 -18 40 -20 132 -17 58 1 166 8 240 14 74 7 295 12 491 12
342 -1 359 -2 397 -22 22 -11 43 -18 46 -15 3 3 12 1 19 -5 10 -9 23 -7 53 9
36 20 58 22 259 25 121 1 262 4 313 6 52 2 96 0 98 -3 2 -3 49 -5 106 -4 57 1
111 -2 121 -7 10 -5 74 -15 143 -23 121 -13 127 -13 147 6 11 10 31 19 44 19
25 0 29 10 11 28 -12 12 -10 13 15 16 6 1 12 10 13 21 0 11 4 36 8 55 8 38 -2
71 -32 108 -15 20 -31 25 -93 30 -156 12 -513 1 -562 -17 -12 -4 -38 -7 -57
-5 -19 1 -84 5 -143 8 -59 3 -115 10 -125 15 -9 5 -44 12 -77 16 -33 4 -75 16
-93 27 -32 19 -32 21 -32 96 0 463 -11 1076 -18 1112 -6 25 -9 88 -8 140 2 52
0 100 -3 105 -3 6 -7 53 -8 105 0 52 -4 138 -7 190 -3 52 -8 137 -11 188 -2
51 -7 97 -11 103 -6 10 -19 136 -29 289 -4 52 -10 124 -15 159 -5 36 -7 68 -4
72 2 5 0 57 -5 116 -6 59 -13 180 -16 268 -3 88 -9 189 -13 225 -9 79 -7 406
3 585 4 72 9 193 10 271 1 124 4 145 22 170 11 16 24 45 28 64 9 42 46 120 57
120 4 0 24 14 44 32 41 36 22 34 264 24 157 -7 207 -3 500 39 179 26 405 45
530 45 47 0 92 0 100 0 8 0 69 2 135 4 66 2 172 1 235 -3 63 -3 140 -4 171 -1
103 10 102 10 116 -115 6 -61 21 -161 32 -224 12 -63 21 -120 21 -128 0 -8
-13 -13 -36 -13 -20 0 -48 -8 -62 -19 -15 -10 -50 -30 -79 -45 -91 -45 -113
-76 -157 -216 -22 -69 -41 -132 -42 -140 -1 -8 -6 -35 -12 -59 -20 -86 -11
-160 31 -242 21 -41 55 -93 76 -116 42 -46 199 -135 275 -154 l47 -12 -7 -261
c-3 -143 -8 -263 -11 -266 -2 -2 -10 0 -17 5 -7 6 -46 35 -87 66 -41 30 -81
58 -89 62 -23 10 -92 62 -225 168 -66 53 -130 101 -141 107 -44 24 -159 -43
-140 -81 25 -49 52 -79 118 -127 85 -62 205 -158 258 -207 19 -18 41 -31 48
-28 7 3 10 0 7 -5 -3 -5 7 -15 22 -22 15 -6 35 -17 43 -24 8 -7 58 -35 110
-62 l95 -50 7 -54 c4 -29 14 -111 23 -183 l16 -130 -36 -30 c-19 -17 -41 -42
-49 -56 -21 -40 -130 -223 -136 -229 -3 -3 -16 -25 -29 -50 -13 -25 -31 -54
-42 -65 -10 -11 -31 -52 -47 -90 -17 -39 -52 -117 -80 -175 -27 -58 -53 -116
-57 -130 -4 -14 -14 -32 -21 -41 -8 -9 -20 -39 -28 -67 -12 -46 -11 -53 7 -81
10 -17 25 -31 33 -31 8 0 14 -4 14 -9 0 -10 61 -8 79 3 6 4 11 12 11 19 0 6
15 43 34 82 19 38 48 106 65 150 32 86 113 267 128 287 5 7 19 33 32 58 13 25
28 51 34 58 5 7 19 29 31 51 32 57 65 96 75 85 27 -29 76 -192 176 -579 47
-184 99 -332 124 -358 34 -34 81 -38 118 -11 40 30 41 90 4 192 -17 45 -31 86
-31 90 0 4 -15 57 -34 117 -19 61 -45 143 -57 182 -12 40 -26 70 -31 67 -6 -4
-7 2 -3 15 5 16 3 20 -9 15 -18 -7 -23 21 -6 31 12 7 3 46 -12 56 -5 3 -10 17
-12 30 -5 43 -28 114 -41 129 -7 8 -20 38 -28 65 -9 28 -23 70 -32 94 -15 42
-15 43 9 68 32 31 35 54 18 128 -18 80 -42 238 -37 246 2 3 36 28 76 55 39 27
81 56 93 64 11 8 25 20 29 27 4 7 19 13 33 13 47 0 199 98 199 129 0 8 6 16
13 19 6 2 12 -3 12 -12 0 -14 4 -14 35 1 19 9 35 22 35 28 0 7 9 20 20 30 24
21 26 40 5 31 -21 -8 -19 -1 9 29 26 28 38 70 29 106 -9 38 -23 49 -61 49 -36
0 -102 -36 -102 -55 0 -6 -19 -23 -42 -38 -73 -46 -149 -100 -211 -151 -59
-49 -163 -116 -179 -116 -4 0 -8 18 -8 40 0 22 -5 40 -11 40 -6 0 -8 8 -4 19
3 11 8 96 11 188 2 92 8 193 12 223 l7 55 60 13 c90 19 158 57 233 131 71 70
87 102 112 231 25 132 -15 323 -89 424 -37 49 -112 109 -174 137 -20 9 -31 27
-47 78 -11 36 -25 80 -30 96 -5 17 -12 53 -15 80 -12 98 -16 115 -40 144 -23
26 -25 40 -31 157 -6 141 -13 157 -78 189 -32 16 -126 20 -126 6 0 -6 -28 -8
-62 -6 -127 7 -278 11 -282 7 -10 -9 -182 -9 -193 0 -9 7 -13 7 -13 -1z m583
-901 c33 -15 52 -18 69 -11 32 12 92 -19 158 -82 66 -63 94 -108 114 -190 31
-122 1 -235 -75 -283 -41 -26 -47 -26 -141 -21 -81 4 -109 10 -153 32 -64 33
-145 110 -171 162 -40 85 -28 192 34 288 28 43 102 125 113 125 3 0 27 -9 52
-20z"/>
</g>
</svg>
